# xmcd CD database file
#
# Track frame offsets:
#	150
#	21327
#	41662
#	64402
#
# Disc length: 1138 seconds
#
# Revision: 0
# Processed by: cddbd v1.5PL3 Copyright (c) Steve Scherf et al.
# Submitted via: CDex 1.51
#
DISCID=34047004
DTITLE=y'z factory - anytime anywhere
DYEAR=2001
DGENRE=JPop
TTITLE0=anytime anywhere
TTITLE1=Maze
TTITLE2=恋ゴコロ
TTITLE3=anytime anywhere (instrumental)
EXTD=YEAR: 2001
EXTT0=
EXTT1=
EXTT2=
EXTT3=
PLAYORDER=
